<?xml version="1.0" encoding="utf-8"?>
<!-- Generator: Adobe Illustrator 28.1.0, SVG Export Plug-In . SVG Version: 6.00 Build 0)  -->
<svg version="1.1" id="katman_1" xmlns="http://www.w3.org/2000/svg" xmlns:xlink="http://www.w3.org/1999/xlink" x="0px" y="0px"
	 viewBox="0 0 3000 886.82" style="enable-background:new 0 0 3000 886.82;" xml:space="preserve">
<style type="text/css">
	.st0{fill:#FFCB00;}
	.st1{fill:#171714;}
	.st2{fill-rule:evenodd;clip-rule:evenodd;fill:#171714;}
</style>
<g>
	<path d="M1426.39,605.93l74.55-253.97l73.82,253.97H1426.39L1426.39,605.93z M949.43,435.72c-11.19,8.51-27.95,12.75-50.32,12.75
		h-80.91V334.76h80.91c22.37,0,39.12,4.37,50.32,13.11c11.17,8.76,16.76,22.86,16.76,42.29
		C966.19,410.09,960.6,427.22,949.43,435.72L949.43,435.72z M2252.9,337.68V231.23h-382.72v217.24h-209.56l-74.4-217.24h-168.39
		l-74.06,217.24h-248.23c7.51-18.58,11.35-42.85,11.35-67.07c0-45.67-16.28-82.12-48.84-109.34
		c-32.56-27.21-78.26-40.83-137.05-40.83H680.41v217.24H561.22H342.53v91.13v15.32h99.24c-0.91,7.88-2.85,14.95-5.93,21.13
		c-4.37,8.75-10.46,15.93-18.24,21.51c-7.77,5.58-16.88,9.85-27.32,12.74c-10.47,2.93-22.01,4.39-34.63,4.39
		c-24.3,0-44.58-4.98-60.87-14.95c-16.28-9.94-28.42-25.5-36.43-46.64c-8.04-21.14-12.04-48.23-12.04-81.28
		c0-30.62,3.76-56.25,11.3-76.91c7.53-20.67,18.69-36.21,33.53-46.66c14.82-10.44,33.41-15.67,55.77-15.67
		c21.37,0,39.37,5.1,53.95,15.3c14.58,10.21,27.16,35.44,32.52,59.72l128.18-56.68c-18.95-43.74-45.9-76.54-80.15-96.71
		c-34.28-20.16-79.35-30.26-135.24-30.26c-50.07,0-93.43,9.97-130.11,29.88c-36.71,19.95-64.9,48.37-84.57,85.3
		c-19.69,36.94-29.53,81.4-29.53,133.4c0,53.96,9.47,99.28,28.42,135.96c18.97,36.71,44.97,64.41,78.01,83.11
		c33.05,18.71,70.71,28.06,113.01,28.06c42.27,0,76.54-9.11,102.78-27.34c15.04-10.44,27.27-23.39,36.88-38.7l5.41,58.76h94.76
		V554.92h119.19v157.46h137.79V554.92h71.94l90.63,157.46h153.81l-102.2-157.46h275.09l-53.68,157.46h71.6h68.39h212.86h11.81
		h132.54l-53.9-157.46h173.1v157.46h140.7V554.92h160.77V448.47h-11.92h-148.86v-110.8H2252.9L2252.9,337.68z"/>
	<path class="st0" d="M2827.5,737.63c-133.82,25.52-267.65,51.05-401.47,76.59c-48.39,9.22-95.36-23.44-102.29-72.2
		c-25.54-179.23-25.54-361.2,0-540.43c6.93-48.76,53.9-81.43,102.29-72.2c133.82,25.54,267.65,51.06,401.47,76.59
		c45.63,8.7,75.68,51.64,69.82,97.72c-14.17,111.61-14.17,224.6,0,336.21C2903.17,685.99,2873.13,728.93,2827.5,737.63
		L2827.5,737.63z"/>
	<path class="st1" d="M2429.78,422.37c-8.65,0-16.15-1.85-22.51-5.56c-6.36-3.73-11.28-8.98-14.77-15.81l-16.37,13.41
		c5.31,8.18,12.61,14.54,21.94,19.09c9.32,4.55,19.65,6.82,31.03,6.82c14.22,0,25.6-3.29,34.08-9.9
		c8.5-6.59,12.73-15.34,12.73-26.25c0-7.42-2.3-13.56-6.94-18.4c-4.61-4.86-12.15-8.42-22.61-10.7l-26.81-5.45
		c-5.61-1.2-9.61-2.99-12.05-5.34c-2.43-2.34-3.64-5.19-3.64-8.52c0-3.04,0.95-5.72,2.84-8.07c1.89-2.34,4.66-4.21,8.29-5.58
		c3.65-1.36,7.97-2.05,12.98-2.05c6.35,0,12.34,1.59,17.95,4.78c5.61,3.18,9.7,7.73,12.28,13.64l16.35-12.28
		c-4.09-7.74-10.15-13.68-18.17-17.84c-8.05-4.17-17.58-6.25-28.65-6.25c-9.25,0-17.35,1.58-24.32,4.77
		c-6.98,3.18-12.28,7.39-15.92,12.61c-3.64,5.22-5.46,10.95-5.46,17.17c0,8.34,2.58,15.16,7.74,20.45
		c5.14,5.32,13.41,9.17,24.77,11.61l25,5.2c5.31,1.07,8.98,2.73,11.03,5.01c2.05,2.27,3.08,5.01,3.08,8.19
		c0,4.69-2.13,8.42-6.38,11.13C2443.04,421.01,2437.2,422.37,2429.78,422.37L2429.78,422.37z"/>
	<path class="st1" d="M2579.34,430.33l-5.91-16.82c-2.59,2.43-5.39,4.31-8.42,5.67c-3.04,1.37-6.67,2.05-10.91,2.05
		c-4.99,0-9.07-1.32-12.16-3.96c-3.11-2.66-4.66-6.79-4.66-12.4v-62.52h40.01v-17.95h-40.01v-32.98l-22.05,6.16v26.82h-22.05v17.95
		h22.05v66.38c0.15,7.57,1.74,13.68,4.79,18.3c3.01,4.63,7.15,7.99,12.37,10.12c5.23,2.11,11.03,3.2,17.4,3.2
		c6.21,0,11.81-0.88,16.8-2.63C2571.6,435.99,2575.84,433.51,2579.34,430.33L2579.34,430.33z"/>
	<path class="st1" d="M2702.77,324.41h-22.29v61.6c0,6.21-0.86,11.58-2.61,16.14c-1.75,4.54-4.08,8.3-7.04,11.26
		c-2.96,2.95-6.34,5.06-10.11,6.34c-3.79,1.32-7.65,1.95-11.59,1.95c-8.35,0-14.78-1.99-19.33-6.02
		c-4.54-4.01-6.82-11.39-6.82-22.17v-69.09h-22.28v74.77c0,9.87,1.93,17.8,5.8,23.88c3.86,6.05,8.98,10.46,15.36,13.19
		c6.35,2.73,13.18,4.09,20.44,4.09c9.25,0,17.18-1.65,23.87-4.89c6.65-3.26,11.98-8.37,15.9-15.36l1.13,17.97h19.57V324.41
		L2702.77,324.41z"/>
	<polygon class="st1" points="2742.3,388.97 2818.89,388.97 2818.89,367.6 2742.3,367.6 2742.3,388.97 	"/>
	<path class="st1" d="M2463.63,598.4c-2.71,6.35-6.55,11.2-11.46,14.55c-4.92,3.33-10.73,4.97-17.4,4.97
		c-10.44,0-18.53-3.62-24.2-10.89c-5.67-7.27-8.52-17.2-8.52-29.78c0-12.56,2.91-22.49,8.73-29.78
		c5.84-7.27,14.06-10.91,24.67-10.91c6.5,0,12.16,1.56,16.94,4.66c4.78,3.11,8.53,7.62,11.25,13.54c2.73,5.89,4.09,12.95,4.09,21.13
		C2467.73,584.54,2466.36,592.02,2463.63,598.4L2463.63,598.4z M2467.73,540.41c-2.48-5.64-5.82-10.67-10.9-14.51
		c-6.82-5.16-15.02-7.74-24.55-7.74c-9.4,0-18.12,2.3-26.13,6.94c-8.03,4.61-14.44,11.31-19.22,20.11
		c-4.77,8.79-7.15,19.48-7.15,32.04c0,12.28,2.26,22.86,6.8,31.71c4.56,8.85,10.7,15.65,18.44,20.34c7.7,4.69,16.27,7.06,25.68,7.06
		c6.65,0,12.86-1.3,18.63-3.88c5.74-2.58,10.6-6.25,14.54-11.03c2.23-2.69,3.88-5.8,5.19-9.18l1.17,21.81h19.55V468.84h-22.04
		V540.41L2467.73,540.41z"/>
	<polygon class="st1" points="2520.23,634.08 2542.27,634.08 2542.27,520.43 2520.23,520.43 2520.23,634.08 	"/>
	<path class="st1" d="M2531.15,471.11c-4.69,0-8.42,1.28-11.15,3.86c-2.73,2.57-4.09,6.13-4.09,10.68c0,4.55,1.37,8.1,4.09,10.7
		c2.73,2.58,6.46,3.86,11.15,3.86c4.84,0,8.65-1.28,11.36-3.86c2.73-2.6,4.09-6.15,4.09-10.7c0-4.54-1.36-8.1-4.09-10.68
		C2539.8,472.39,2535.99,471.11,2531.15,471.11L2531.15,471.11z"/>
	<path class="st1" d="M2649.79,599.42c-2.73,6.13-6.59,10.83-11.58,14.09c-5.01,3.25-11.06,4.87-18.2,4.87
		c-7.12,0-13.18-1.63-18.18-4.87c-5.01-3.26-8.87-7.95-11.58-14.09c-2.73-6.14-4.09-13.51-4.09-22.16c0-8.78,1.37-16.22,4.09-22.28
		c2.71-6.05,6.57-10.71,11.58-13.99c5-3.24,11.06-4.89,18.18-4.89c7.14,0,13.19,1.65,18.2,4.89c4.99,3.28,8.85,7.94,11.58,13.99
		c2.73,6.05,4.09,13.49,4.09,22.28C2653.88,585.91,2652.52,593.28,2649.79,599.42L2649.79,599.42z M2648.99,525.21
		c-8.4-4.69-18.07-7.06-28.98-7.06c-10.89,0-20.56,2.36-28.96,7.06c-8.42,4.69-15.03,11.48-19.8,20.35
		c-4.77,8.86-7.13,19.43-7.13,31.71c0,12.26,2.36,22.84,7.13,31.71c4.78,8.85,11.38,15.64,19.8,20.32
		c8.4,4.71,18.06,7.06,28.96,7.06c10.92,0,20.58-2.34,28.98-7.06c8.42-4.69,15-11.48,19.8-20.32c4.77-8.87,7.13-19.45,7.13-31.71
		c0-12.28-2.36-22.84-7.13-31.71C2664,536.69,2657.41,529.9,2648.99,525.21L2648.99,525.21z"/>
	<path class="st1" d="M2767.54,571.12l-26.82-5.45c-5.61-1.2-9.62-2.99-12.04-5.34c-2.43-2.35-3.64-5.19-3.64-8.52
		c0-3.04,0.95-5.72,2.84-8.07c1.88-2.34,4.66-4.21,8.29-5.57c3.64-1.37,7.97-2.05,12.97-2.05c6.36,0,12.35,1.58,17.95,4.77
		c5.61,3.18,9.7,7.72,12.28,13.64l16.35-12.28c-4.09-7.73-10.15-13.69-18.17-17.85c-8.05-4.17-17.59-6.25-28.65-6.25
		c-9.25,0-17.35,1.59-24.32,4.79c-6.97,3.17-12.27,7.38-15.92,12.59c-3.64,5.24-5.46,10.97-5.46,17.18c0,8.34,2.58,15.16,7.74,20.45
		c5.14,5.3,13.41,9.17,24.77,11.6l25.01,5.23c5.3,1.06,8.98,2.73,11.03,5c2.05,2.26,3.06,4.99,3.06,8.17
		c0,4.69-2.11,8.42-6.36,11.13c-4.24,2.73-10.08,4.09-17.5,4.09c-8.65,0-16.15-1.85-22.51-5.56c-6.36-3.71-11.28-8.98-14.77-15.79
		l-16.37,13.41c5.3,8.17,12.61,14.54,21.94,19.08c9.32,4.56,19.65,6.82,31.02,6.82c14.23,0,25.61-3.3,34.09-9.88
		c8.48-6.61,12.72-15.34,12.72-26.25c0-7.42-2.29-13.56-6.94-18.4C2785.54,576.96,2778.01,573.4,2767.54,571.12L2767.54,571.12z"/>
	<path class="st2" d="M2842.31,524.42c15.16,0,27.45,12.29,27.45,27.45c0,15.16-12.29,27.45-27.45,27.45
		c-15.16,0-27.45-12.29-27.45-27.45C2814.86,536.71,2827.15,524.42,2842.31,524.42L2842.31,524.42z M2842.31,528.82
		c12.73,0,23.05,10.32,23.05,23.05c0,12.73-10.32,23.05-23.05,23.05c-12.73,0-23.05-10.32-23.05-23.05
		C2819.27,539.14,2829.58,528.82,2842.31,528.82L2842.31,528.82z"/>
	<g>
		<path class="st1" d="M2832.08,537.75h12.29c3.36,0,5.71,0.4,7.04,1.19c2.35,1.36,3.52,3.56,3.52,6.61c0,4.44-2.57,7.02-7.71,7.76
			c2.01,1.07,3.94,3.08,5.81,6.02l4.24,6.65h-5.68l-3.94-5.98c-1.24-1.92-2.19-3.26-2.84-4.03c-0.59-0.71-1.21-1.23-1.87-1.57
			c-0.71-0.4-1.82-0.59-3.35-0.59h-2.8v12.17h-4.71V537.75z M2843.01,549.96c2.49,0,4.24-0.27,5.26-0.81
			c1.24-0.65,1.87-1.78,1.87-3.39c0-2.74-2.18-4.11-6.53-4.11h-6.87v8.31H2843.01z"/>
	</g>
</g>
</svg>
